<?xml version="1.0" encoding="UTF-8"?>
<svg width="512" height="512" viewBox="0 0 512 512" xmlns="http://www.w3.org/2000/svg">
  <defs>
    <linearGradient id="metal" x1="0%" y1="0%" x2="100%" y2="100%">
      <stop offset="0%" stop-color="#f0f0f0"/>
      <stop offset="45%" stop-color="#9a9a9a"/>
      <stop offset="100%" stop-color="#3d3d3d"/>
    </linearGradient>

    <linearGradient id="ring" x1="0%" y1="0%" x2="100%" y2="100%">
      <stop offset="0%" stop-color="#6e6e6e"/>
      <stop offset="100%" stop-color="#1f1f1f"/>
    </linearGradient>

    <filter id="shadow" x="-20%" y="-20%" width="140%" height="140%">
      <feDropShadow dx="0" dy="6" stdDeviation="8" flood-color="#000000" flood-opacity="0.45"/>
    </filter>
  </defs>

  <rect width="512" height="512" rx="96" fill="#050505"/>

  <g filter="url(#shadow)">
    <circle cx="256" cy="256" r="190" fill="url(#ring)" stroke="#808080" stroke-width="8"/>
    <circle cx="256" cy="256" r="170" fill="#0b0b0b"/>

    <!-- Orion O -->
    <path d="M256 126
             C196 126 150 172 150 232
             L150 280
             C150 340 196 386 256 386
             C316 386 362 340 362 280
             L362 232
             C362 172 316 126 256 126 Z

             M256 176
             C288 176 312 200 312 232
             L312 280
             C312 312 288 336 256 336
             C224 336 200 312 200 280
             L200 232
             C200 200 224 176 256 176 Z"
          fill="url(#metal)"
          fill-rule="evenodd"/>

    <!-- Crosshair -->
    <line x1="256" y1="120" x2="256" y2="392"
          stroke="#d8d8d8" stroke-width="10" stroke-linecap="round"/>
    <line x1="120" y1="256" x2="392" y2="256"
          stroke="#d8d8d8" stroke-width="10" stroke-linecap="round"/>

    <circle cx="256" cy="256" r="14"
            fill="#050505"
            stroke="#d8d8d8"
            stroke-width="8"/>
  </g>
</svg>
